<?xml version="1.0" encoding="utf-8"?>
<!-- Generator: Adobe Illustrator 18.0.0, SVG Export Plug-In . SVG Version: 6.00 Build 0)  -->
<!DOCTYPE svg PUBLIC "-//W3C//DTD SVG 1.1 Basic//EN" "http://www.w3.org/Graphics/SVG/1.1/DTD/svg11-basic.dtd">
<svg version="1.1" baseProfile="basic" id="Layer_1"
	 xmlns="http://www.w3.org/2000/svg" xmlns:xlink="http://www.w3.org/1999/xlink" x="0px" y="0px" viewBox="0 0 20 32"
	 xml:space="preserve">
<g id="Layer_1_copy">
	<path d="M5.8,22"/>
	<path d="M15.8,22"/>
	<path d="M17,24.5c0,0.8-0.7,1.5-1.5,1.5c-0.8,0-1.5-0.7-1.5-1.5c0-0.4,0-2.5,0-2.5h3C17,22,17,23.7,17,24.5z"/>
	<path d="M8,24.5C8,25.3,7.3,26,6.5,26S5,25.3,5,24.5C5,23.6,5,22,5,22h3C8,22,8,23.7,8,24.5z"/>
	<path d="M16.1,20c0.7,0,1.4-0.5,1.6-1.3l1.5-5.7c0.1-0.6-0.3-2-1.2-2h-1c-0.3-2-2-4-4.5-5c-0.8-0.3-1.4-1.2-1.9-2
		c-0.3,1.2-0.1,1.8-1.9,2.6C7,7.4,5.8,9,5.5,11H4.1C4,11,4,10.9,3.9,10.9L3,10c0,0,0-0.3,0-0.5C3,8.7,2.3,8,1.5,8S0,8.7,0,9.5
		C0,10.3,0.7,11,1.5,11H2l1.1,1v0.1L5,18.8c0.1,0.3,0.2,0.5,0.5,0.7L2,22l1,1h16.2l-1-2H5.1l2-1H16.1z M16,13h1v1h-1V13z M16,15h1v1
		h-1V15z M6,17h1v1H6V17z M14,13h1v1h-1V13z M14,15h1v1h-1V15z M14,17h1v1h-1V17z M12,13h1v1h-1V13z M12,15h1v1h-1V15z M12,17h1v1
		h-1V17z M10,13h1v1h-1V13z M10,15h1v1h-1V15z M10,17h1v1h-1V17z M8,13h1v1H8V13z M8,15h1v1H8V15z M8,17h1v1H8V17z M7,16H6v-1h1V16z
		 M7,14H6v-1h1V14z"/>
</g>
</svg>
