<svg xmlns="http://www.w3.org/2000/svg" width="20" height="32" viewBox="0 0 20 32"><path d="M17 24.5c0 .8-.7 1.5-1.5 1.5s-1.5-.7-1.5-1.5v-2.5h3v2.5zM8 24.5c0 .8-.7 1.5-1.5 1.5s-1.5-.7-1.5-1.5v-2.5h3v2.5zM16.1 20c.7 0 1.4-.5 1.6-1.3l1.5-5.7c.1-.6-.3-2-1.2-2h-1c-.3-2-2-4-4.5-5-.8-.3-1.4-1.2-1.9-2-.3 1.2-.1 1.8-1.9 2.6-1.7.8-2.9 2.4-3.2 4.4h-1.4l-.2-.1-.9-.9v-.5c0-.8-.7-1.5-1.5-1.5s-1.5.7-1.5 1.5.7 1.5 1.5 1.5h.5l1.1 1v.1l1.9 6.7c.1.3.2.5.5.7l-3.5 2.5 1 1h16.2l-1-2h-13.1l2-1h9zm-.1-7h1v1h-1v-1zm0 2h1v1h-1v-1zm-10 2h1v1h-1v-1zm8-4h1v1h-1v-1zm0 2h1v1h-1v-1zm0 2h1v1h-1v-1zm-2-4h1v1h-1v-1zm0 2h1v1h-1v-1zm0 2h1v1h-1v-1zm-2-4h1v1h-1v-1zm0 2h1v1h-1v-1zm0 2h1v1h-1v-1zm-2-4h1v1h-1v-1zm0 2h1v1h-1v-1zm0 2h1v1h-1v-1zm-1-1h-1v-1h1v1zm0-2h-1v-1h1v1z" fill="#bebebe"/></svg>