<svg xmlns="http://www.w3.org/2000/svg" width="20" height="32" viewBox="0 0 20 32"><defs><style>.cls-1{fill:#ea2800;}</style></defs><path class="cls-1" d="M17,24.5a1.5,1.5,0,0,1-3,0V23h3v1.5Zm-9,0A1.54,1.54,0,0,1,6.5,26,1.54,1.54,0,0,1,5,24.5V23H8v1.5ZM5.5,11H4.1l-0.2-.1L3,10V9.5A1.54,1.54,0,0,0,1.5,8a1.5,1.5,0,1,0,0,3H2l1.1,1v0.1L5,18.8a1.16,1.16,0,0,0,.5.7L2,22l1,1H19.2l-1-2H5.1l2-1h9a1.69,1.69,0,0,0,1.6-1.3L19.2,13c0.1-.6-0.3-2-1.2-2H5.5ZM16,13h1v1H16V13Zm0,2h1v1H16V15ZM6,17H7v1H6V17Zm8-4h1v1H14V13Zm0,2h1v1H14V15Zm0,2h1v1H14V17Zm-2-4h1v1H12V13Zm0,2h1v1H12V15Zm0,2h1v1H12V17Zm-2-4h1v1H10V13Zm0,2h1v1H10V15Zm0,2h1v1H10V17ZM8,13H9v1H8V13Zm0,2H9v1H8V15Zm0,2H9v1H8V17ZM7,16H6V15H7v1Zm0-2H6V13H7v1Z" transform="translate(0 -8)"/></svg>