<svg id="Amex.svg" xmlns="http://www.w3.org/2000/svg" width="128" height="80" viewBox="0 0 128 80">
  <defs>
    <style>
      .cls-1 {
        fill: #fff;
        stroke: #d9d9d9;
        stroke-linejoin: round;
        stroke-width: 1px;
      }

      .cls-2 {
        fill: #2478bc;
        fill-rule: evenodd;
      }
    </style>
  </defs>
  <rect id="Rounded_Rectangle_1" data-name="Rounded Rectangle 1" class="cls-1" width="128" height="80" rx="6" ry="6"/>
  <path class="cls-2" d="M86.68,38.846a7.343,7.343,0,0,1,2.144-.216h1.782V12.013H36v20l0.1-.241,1.848-4.253h4.006l0.5,1,0.014-1h4.717l1,2.314,1.035-2.314H62.27s1.354,0,2.013,0a2.806,2.806,0,0,1,1.568.51v-0.51h4.07v0.524a5.025,5.025,0,0,1,.79-0.307,7.428,7.428,0,0,1,1.123-.193c0.537-.005,1.079-0.027,1.616-0.021h4.993l0.542,1.047V27.523h4.359l0.62,1.012V27.523h4.242v9H83.939L83.074,35.15v1.368H77.737l-0.62-1.443h-1.3l-0.6,1.443H73.191a11.947,11.947,0,0,1-2.442-.216,6.83,6.83,0,0,1-.82-0.321v0.537H63.3V34.411a0.214,0.214,0,0,0-.145-0.227,1.43,1.43,0,0,0-.322-0.023v2.357H50V35.5l-0.447,1.02H46.855L46.4,35.453v1.065H41.229l-0.594-1.429L39.3,35.084l-0.59,1.434H36V66.993h54.6V47.317a5.188,5.188,0,0,1-2.132.33c-0.069,0-2.534,0-2.534,0H84.513V47.115a2.413,2.413,0,0,1-1.628.532H69.9V45.54a0.237,0.237,0,0,0-.1-0.2,2.581,2.581,0,0,0-.4-0.018v2.326H65.26V45.233a8.436,8.436,0,0,1-.9.255,14.254,14.254,0,0,1-1.726.066v2.093H57.646l-1.24-1.368-1.292,1.368H46.951V38.636h8.282l1.219,1.35,1.285-1.35h5.325c0.441,0.039.888,0.048,1.329,0.111a2.8,2.8,0,0,1,1.026.418V38.636H69.39a9.811,9.811,0,0,1,1.092.03,5.1,5.1,0,0,1,1.293.207,6.293,6.293,0,0,1,.668.294V38.636h7.522v0.541a4.146,4.146,0,0,1,.677-0.343,6.407,6.407,0,0,1,1.416-.2c1.306,0,3.935,0,3.935,0v0.541a4.243,4.243,0,0,1,.689-0.325Zm-27.852-8.7V28.793H53.691v6.469h5.142V33.9l-3.583,0,0.018-1.231,0.2-.018h3.28l-0.005-.516V31.3l-3.46-.009V30.147Zm9.737-1.351-1.607.009,0.009,6.462h1.6V28.793Zm-16,0H50.021L49.562,29.88l-1.41,3.3-0.576-1.276-1.419-3.113h-2.52l0,6.094-0.122-.282-1.9-4.442-0.572-1.372H38.75L36,35.26h1.673l0.066-.141,0.528-1.285h3.214l0.555,1.425h3.124V30.2l1.41,3.158,0.852,1.9h1.35l1.276-2.912,0.939-2.023V35.26h1.589l0-6.469ZM38.825,32.458l0.092-.228,0.934-2.248,0.617,1.425,0.411,1.051H38.825ZM71.28,30.641a1.454,1.454,0,0,1,.874-0.43c0.6-.03,1.8-0.018,1.8-0.018V28.8H72.941a5.66,5.66,0,0,0-1.965.225,2.841,2.841,0,0,0-.578.294,2.534,2.534,0,0,0-.865,1.2,5.836,5.836,0,0,0-.241,1.2,5.576,5.576,0,0,0-.009.769,3.706,3.706,0,0,0,.324,1.338A2.079,2.079,0,0,0,70.8,35a3.612,3.612,0,0,0,1.175.268c0.725-.013,2.179,0,2.179,0l0.546-1.42h3.223l0.572,1.42h3.133l0.012-4.8,2.918,4.812,2.171-.013,0-6.469H85.13l-0.005,4.41-1.035-1.7-0.306-.526L82.73,29.223,82.512,28.8H80.1v4.178l-0.018,1.843L77.519,28.8h-2.3l-1.774,4.16s-0.275.621-.388,0.937a4.574,4.574,0,0,1-1.4-.118,1.21,1.21,0,0,1-.68-0.849,3.778,3.778,0,0,1,.012-1.741,2.086,2.086,0,0,1,.294-0.542v0Zm4.245,1.288,0.537-1.315,0.28-.633,0.546,1.3,0.262,0.639,0.2,0.524H75.338l0.188-.51v0Zm-9.5-.792a2.157,2.157,0,0,0-.144-1.477,1.629,1.629,0,0,0-.813-0.673,3.317,3.317,0,0,0-1.21-.193c-1.324,0-3.965,0-3.965,0v6.465h1.556l0-2.071,0-.273s1.1,0,1.625.005a1.934,1.934,0,0,1,1.074.246,0.6,0.6,0,0,1,.236.334,2.314,2.314,0,0,1,.078.528c0.014,0.416.009,1.231,0.009,1.231H66.03a17.371,17.371,0,0,0-.053-1.984,1.281,1.281,0,0,0-.477-0.739c-0.135-.1-0.287-0.171-0.423-0.277A2,2,0,0,0,66.022,31.137Zm-1.935.309a1.8,1.8,0,0,1-.932.127H61.443V30.144h0.315s1.2-.012,1.795.012a1.432,1.432,0,0,1,.555.141,0.725,0.725,0,0,1-.021,1.147v0Zm14.568,9.839V39.931H73.51l0,6.492h5.142V45.069l-3.577,0V43.79h3.491v-1.35H75.078V41.287Zm4.074,3.734c-1.061.009-3.184,0.009-3.184,0.009v1.4s2.063,0,3.094.005a2.84,2.84,0,0,0,1.115-.153,1.97,1.97,0,0,0,.934-0.681,2.415,2.415,0,0,0,.306-1.179,2.063,2.063,0,0,0-.381-1.333,1.839,1.839,0,0,0-.778-0.45,11.831,11.831,0,0,0-2.373-.207,0.553,0.553,0,0,1-.337-0.193,0.559,0.559,0,0,1,.087-0.753,1.481,1.481,0,0,1,.813-0.153h2.656s0-1,0-1.393H81.37a2.041,2.041,0,0,0-1.577.739,2.2,2.2,0,0,0-.135,2.344,1.609,1.609,0,0,0,.916.651,4.777,4.777,0,0,0,1.407.211,8.6,8.6,0,0,1,.957.053,0.529,0.529,0,0,1,.4.391,0.566,0.566,0,0,1-.606.7v0Zm7.929-1.87a1.94,1.94,0,0,0-1.288-.624,6.569,6.569,0,0,0-.877-0.053c-0.323.018-.638-0.039-0.96-0.043a0.527,0.527,0,0,1-.477-0.36,0.49,0.49,0,0,1,.087-0.519,0.9,0.9,0,0,1,.608-0.228h2.918v-1.39H87.445a2.294,2.294,0,0,0-1.162.316,1.742,1.742,0,0,0-.8,1,2.573,2.573,0,0,0-.027,1.3,1.567,1.567,0,0,0,.8,1,4.521,4.521,0,0,0,1.3.321c0.376,0.036.751-.009,1.127,0.045a0.9,0.9,0,0,1,.372.071,0.518,0.518,0,0,1,.23.735,0.579,0.579,0,0,1-.521.312c-1.061.005-3.189,0.005-3.189,0.005v1.4s2.123,0,3.184,0a3.6,3.6,0,0,0,1.01-.168,1.509,1.509,0,0,0,.957-0.748,2.09,2.09,0,0,0,.262-1.188,1.876,1.876,0,0,0-.324-1.17v0ZM64.064,40.013a5.222,5.222,0,0,0-1.083-.084c-1.556,0-4.665,0-4.665,0l-1.992,2.1-1.9-2.1H48.234v6.492h6.081l1-1.063,0.96-1.024,1.9,2.089h3.01V44.28s1.55,0,2.319-.018a3.781,3.781,0,0,0,1.223-.291,2.11,2.11,0,0,0,.633-0.507,1.888,1.888,0,0,0,.381-1.033,2.545,2.545,0,0,0-.292-1.609A2.169,2.169,0,0,0,64.064,40.013ZM54.157,44.4l-0.617.655-3.756.005V43.779h3.354V42.438H49.784V41.294h3.8l1.7,1.887ZM59.6,44.495V45.8l-0.333-.382-1.958-2.2,0.808-.9L59.6,40.716v3.779h0Zm4.373-1.948a0.709,0.709,0,0,1-.462.328,4.3,4.3,0,0,1-.921.045c-0.462-.009-1.4-0.014-1.4-0.014V41.287s1.139,0,1.708,0a4.008,4.008,0,0,1,.567.018,0.711,0.711,0,0,1,.6.514,1.092,1.092,0,0,1-.09.732h0Zm8.675-.5a1.859,1.859,0,0,0-.2-1.27,2.245,2.245,0,0,0-1.69-.837c-0.218-.013-0.567,0-0.567,0H66.48c-0.009,2.164,0,6.492,0,6.492h1.573v-2.35s0.757-.027,1.132-0.018a4.123,4.123,0,0,1,1.318.114,0.839,0.839,0,0,1,.51.765c0.026,0.5.012,1.486,0.012,1.486h1.559s0.009-1.051,0-1.579a1.66,1.66,0,0,0-.28-0.942,3.584,3.584,0,0,0-.677-0.5A1.847,1.847,0,0,0,72.648,42.041Zm-1.814.373a0.761,0.761,0,0,1-.606.3c-0.725.039-2.176,0-2.176,0V41.289H68.043s1.109,0,1.669,0c0.223,0.018.452,0.03,0.673,0.066a0.593,0.593,0,0,1,.542.423,0.924,0.924,0,0,1-.092.642Z"/>
</svg>
