<svg id="Discover.svg" xmlns="http://www.w3.org/2000/svg" width="128" height="80" viewBox="0 0 128 80">
  <defs>
    <style>
      .cls-1 {
        fill: #fff;
        stroke: #d9d9d9;
        stroke-linejoin: round;
        stroke-width: 1px;
      }

      .cls-2, .cls-4 {
        fill: #f26822;
      }

      .cls-2, .cls-3 {
        fill-rule: evenodd;
      }
    </style>
  </defs>
  <rect id="Rounded_Rectangle_1_copy_3" data-name="Rounded Rectangle 1 copy 3" class="cls-1" width="128" height="80" rx="6" ry="6"/>
  <path id="Rounded_Rectangle_1_copy_4" data-name="Rounded Rectangle 1 copy 4" class="cls-2" d="M127,49V74.22c0,2.889-1.714,4.78-4.841,4.78H38.993C74.082,73.6,104.611,63,127,49Z"/>
  <path class="cls-3" d="M112.646,29.046l0.395,0.553h0.408l-0.464-.588,0.309-.4a0.445,0.445,0,0,0-.532-0.44h-0.45V29.6h0.337V29.049h0v0Zm0-.611h0.061l0.25,0.183-0.255.191h-0.058V28.437Zm0.184,1.693a1.244,1.244,0,1,0-1.225-1.244A1.231,1.231,0,0,0,112.83,30.128Zm0-2.265a1.022,1.022,0,1,1-.976,1.021A1,1,0,0,1,112.825,27.863Zm-1.387,4.894c0-3.038-2.064-4.793-5.666-4.793h-4.63V44.2h3.12V37.674h0.406l4.321,6.521h3.841l-5.038-6.839a4.3,4.3,0,0,0,3.646-4.6v0Zm-6.265,2.681h-0.911V30.521h0.962c1.946,0,3,.825,3,2.406C108.226,34.559,107.168,35.438,105.173,35.438ZM17.591,27.964H13.007V44.2h4.56a8.111,8.111,0,0,0,8.619-8.106c0-4.79-3.53-8.127-8.593-8.127Zm3.648,12.193a5.866,5.866,0,0,1-4.272,1.291H16.129V30.714h0.837c2.018,0,3.242.364,4.272,1.312a5.5,5.5,0,0,1,1.73,4.04,5.6,5.6,0,0,1-1.73,4.09v0Zm6.383-12.193h3.122V44.2H27.622V27.964Zm10.76,6.23c-1.874-.7-2.424-1.166-2.424-2.044,0-1.023.981-1.8,2.326-1.8A3.212,3.212,0,0,1,40.8,31.666L42.436,29.5a6.955,6.955,0,0,0-4.7-1.8,4.731,4.731,0,0,0-4.994,4.652c0,2.236,1.007,3.382,3.938,4.452a12.528,12.528,0,0,1,2.159.924,1.95,1.95,0,0,1,.937,1.679A2.3,2.3,0,0,1,37.35,41.7a3.693,3.693,0,0,1-3.41-2.166L31.922,41.5a6.2,6.2,0,0,0,5.543,3.09,5.2,5.2,0,0,0,5.522-5.331c0-2.58-1.053-3.746-4.6-5.063Zm5.59,1.9a8.347,8.347,0,0,0,8.45,8.471,8.542,8.542,0,0,0,3.915-.945V39.89a4.962,4.962,0,0,1-3.771,1.778,5.27,5.27,0,0,1-5.376-5.6,5.364,5.364,0,0,1,5.233-5.576,5.2,5.2,0,0,1,3.915,1.827V28.595a7.882,7.882,0,0,0-3.841-1A8.476,8.476,0,0,0,43.971,36.092ZM81.1,38.867l-4.268-10.9H73.416l6.793,16.65h1.679l6.916-16.65H85.421ZM90.218,44.2h8.856V41.447H93.337V37.065h5.525V34.316H93.337v-3.6h5.736V27.962H90.218V44.2Z"/>
  <circle class="cls-4" cx="66" cy="36" r="9"/>
</svg>
