<svg id="JCB.svg" xmlns="http://www.w3.org/2000/svg" width="128" height="80" viewBox="0 0 128 80">
  <defs>
    <style>
      .cls-1 {
        fill: #fff;
        stroke: #d9d9d9;
        stroke-linejoin: round;
        stroke-width: 1px;
      }

      .cls-2 {
        fill: #1e4f8f;
      }

      .cls-2, .cls-3, .cls-4 {
        fill-rule: evenodd;
      }

      .cls-3 {
        fill: #d8203b;
      }

      .cls-4 {
        fill: #4dad47;
      }
    </style>
  </defs>
  <rect id="Rounded_Rectangle_1_copy_5" data-name="Rounded Rectangle 1 copy 5" class="cls-1" width="128" height="80" rx="6" ry="6"/>
  <path class="cls-2" d="M40.413,15.923a7.52,7.52,0,0,0-3.086.454,7.027,7.027,0,0,0-4.587,5.515c-0.2,2.151-.152,7.033-0.152,10.322V42c0.233,0.127.478,0.236,0.716,0.353a17.13,17.13,0,0,0,1.7.692c2.729,0.982,7.446,1.459,7.844-2.635,0.222-3.014.015-6.111,0.015-9.133h6.292v7.6c0,1.868-.108,3.736-1.481,5.114A7.965,7.965,0,0,1,43.19,45.95l-0.209.029a24.766,24.766,0,0,1-5.643.016,32.473,32.473,0,0,1-4.749-.8V61.045c3.831,0,8.417.014,11.59-.038a6.715,6.715,0,0,0,4.6-2.435c2.253-2.562,1.893-5.98,1.893-9.177V15.918S43.771,15.914,40.413,15.923Z"/>
  <path class="cls-3" d="M61.036,15.966a6.737,6.737,0,0,0-4.17,1.815,7.6,7.6,0,0,0-2.544,5.684v9.845c3.441-2.827,8.662-2.748,12.82-2.188a33.9,33.9,0,0,1,3.455.65v3.184a15.014,15.014,0,0,0-5.242-1.638l-0.13-.008c-3.115-.312-6.364.869-6.692,4.542a6.75,6.75,0,0,0,0,1.3c0.016,0.183.041,0.359,0.072,0.532A5.359,5.359,0,0,0,60.173,42.5a6.38,6.38,0,0,0,1.426.81,10.7,10.7,0,0,0,5.878-.068,16.608,16.608,0,0,0,3.076-1.257v3.181c-0.491.121-.976,0.26-1.472,0.363s-1.012.188-1.521,0.263c-0.954.14-1.91,0.245-2.873,0.29-0.814.039-1.624,0.016-2.438,0.016-0.812-.022-1.614-0.087-2.42-0.187a12.167,12.167,0,0,1-2.247-.494,12.7,12.7,0,0,1-1.735-.742,6.538,6.538,0,0,1-1.5-.982V61.06h9.944a14.539,14.539,0,0,0,1.983-.121,6.169,6.169,0,0,0,1.977-.577,9.3,9.3,0,0,0,1.448-.892,7.5,7.5,0,0,0,2.151-2.5,7.391,7.391,0,0,0,.762-2.463,36.025,36.025,0,0,0,.062-4.358V15.934C72.588,15.933,63.028,15.914,61.036,15.966Z"/>
  <path class="cls-4" d="M79.8,37.173H79.761V33.509h3.985q0.108,0.006.216,0.017a0.863,0.863,0,0,1,.143.018,0.494,0.494,0,0,1,.072.015,1.76,1.76,0,0,1,.432.155l0.074,0.037a1.634,1.634,0,0,1,.216.143,1.59,1.59,0,0,1,.218.2,1.716,1.716,0,0,1,.288.416c0.028,0.055.047,0.11,0.072,0.168a1.7,1.7,0,0,1,.072.246,2.037,2.037,0,0,1-.072,1.095,1.489,1.489,0,0,1-.072.166,1.7,1.7,0,0,1-.288.416,1.012,1.012,0,0,1-.072.073,0.942,0.942,0,0,1-.072.065,1.614,1.614,0,0,1-.436.271,2.323,2.323,0,0,1-.449.138,0.438,0.438,0,0,0-.054.008c-1.4.11-2.831,0.025-4.236,0.025v0Zm-0.038,6.213H84.1c0.023,0,.046,0,0.072,0s0.047-.005.072-0.008,0.047,0,.072-0.005q0.108-.009.215-0.025l0.043-.012,0.029-.007a0.389,0.389,0,0,0,.072-0.018,2.467,2.467,0,0,0,.432-0.183q0.11-.065.216-0.138a1.3,1.3,0,0,0,.218-0.191c0.025-.028.049-0.052,0.072-0.078a2.412,2.412,0,0,0,.218-0.3c0.028-.043.047-0.09,0.072-0.133s0.051-.115.07-0.176a1.578,1.578,0,0,0,.072-0.249,2.161,2.161,0,0,0-.072-1.171c-0.02-.057-0.046-0.113-0.07-0.17a2.146,2.146,0,0,0-.216-0.353,0.866,0.866,0,0,0-.074-0.087A0.472,0.472,0,0,0,85.537,40a0.572,0.572,0,0,0-.072-0.07c-0.025-.025-0.047-0.043-0.072-0.066s-0.047-.038-0.074-0.055a1.027,1.027,0,0,0-.216-0.14,0.292,0.292,0,0,0-.072-0.037,2.925,2.925,0,0,0-.462-0.171l-0.185-.03c-0.026,0-.046,0-0.072,0a0.51,0.51,0,0,0-.072-0.007c-0.025,0-.049,0-0.072-0.007a0.5,0.5,0,0,1-.072,0H79.761v3.98Zm3.131-27.452a6.731,6.731,0,0,0-4.256,1.818A7.68,7.68,0,0,0,76.221,21.9a7.761,7.761,0,0,0-.152,1.536v7.759c3.8,0.012,7.683-.183,11.468.1,1.646,0.121,3.431.9,3.861,2.685a3.414,3.414,0,0,1,.072.439,3.922,3.922,0,0,1,0,.715,3.1,3.1,0,0,1-.072.429,2.555,2.555,0,0,1-.072.256,3.848,3.848,0,0,1-3.241,2.418V38.32c0,0.015.763,0.128,0.833,0.139a4.318,4.318,0,0,1,3,1.836,3.284,3.284,0,0,1,.349,2.523,4.009,4.009,0,0,1-3.2,2.732A8.391,8.391,0,0,1,88,45.707c-0.739.064-1.481,0.1-2.222,0.124-1.568.049-3.137,0.022-4.7-.017-1.656-.041-3.311-0.1-4.967-0.1V61.059l10.892,0a7.76,7.76,0,0,0,2.042-.284,7.871,7.871,0,0,0,3.442-2.179q0.172-.187.331-0.386a7.49,7.49,0,0,0,1.55-3.426c0.029-.188.054-0.379,0.072-0.572,0.09-4.339.029-8.688,0.029-12.968V15.924S86.652,15.915,82.892,15.934Z"/>
</svg>
