<svg id="Maestro.svg" xmlns="http://www.w3.org/2000/svg" width="128" height="80" viewBox="0 0 128 80">
  <defs>
    <style>
      .cls-1, .cls-4 {
        fill: #fff;
      }

      .cls-1 {
        stroke: #d9d9d9;
        stroke-linejoin: round;
        stroke-width: 1px;
      }

      .cls-2 {
        fill: #ed1b2e;
      }

      .cls-2, .cls-3, .cls-4 {
        fill-rule: evenodd;
      }

      .cls-3 {
        fill: #009ddc;
      }
    </style>
  </defs>
  <rect id="Rounded_Rectangle_1_copy" data-name="Rounded Rectangle 1 copy" class="cls-1" width="128" height="80" rx="6" ry="6"/>
  <path id="Shape_3_copy" data-name="Shape 3 copy" class="cls-2" d="M104.013,40.014a24,24,0,1,1-24.006-24,24,24,0,0,1,24.006,24h0Z"/>
  <path class="cls-3" d="M71.013,40.014a24,24,0,1,1-24.005-24,24,24,0,0,1,24.005,24h0Z"/>
  <path class="cls-4" d="M51.386,35.08a13.326,13.326,0,0,0-3.651.553L47.332,38l0.254-.068,0.438-.115a10.48,10.48,0,0,1,2.52-.29c1.423,0,1.972.26,1.972,0.953a3.277,3.277,0,0,1-.109.682,12.431,12.431,0,0,0-1.242-.081c-3.4,0-5.369,1.493-5.369,4.05a2.69,2.69,0,0,0,2.776,2.866,4.047,4.047,0,0,0,3.215-1.265l-0.075,1.086h2.558l0.035-.284,0.036-.361,0.073-.533,0.109-.666,0.657-3.732,0,0a12.485,12.485,0,0,0,.22-2.079C55.4,36.146,54.015,35.08,51.386,35.08Zm-1.534,8.687a1,1,0,0,1-1.1-1.071h0c0-1.062.875-1.6,2.593-1.6a5.448,5.448,0,0,1,.694.041C51.971,42.69,51.094,43.767,49.852,43.767Zm-8.584,2.049,1.826-9.928-4.2,9.928H36.117L35.605,35.95l-1.827,9.866H31L33.376,32.9H38.16l0.218,8,3.4-8h4.967L44.331,45.816H41.268Zm32.033-8.1a19.468,19.468,0,0,0-2.228-.154c-0.986,0-1.5.29-1.5,0.853,0,0.491.147,0.612,1.425,1.143,1.572,0.636,2.191,1.48,2.191,2.924,0,2.395-1.5,3.5-4.786,3.5-0.4,0-.95-0.03-1.681-0.087a7.381,7.381,0,0,1-.841-0.094l-0.548-.1-0.145-.025,0.438-2.421a9.568,9.568,0,0,0,2.776.414c1.206,0,1.754-.3,1.754-0.947,0-.482-0.183-0.636-1.425-1.16-1.643-.687-2.373-1.6-2.373-2.928,0-1.941,1.206-3.555,4.639-3.557a23.452,23.452,0,0,1,2.738.207Zm4.784,5.744a2.706,2.706,0,0,0,.8-0.1l-0.4,2.329a7.749,7.749,0,0,1-2.191.341,2.121,2.121,0,0,1-2.411-2.306,8.859,8.859,0,0,1,.073-0.941l0.183-1.032,0.145-.832L75.712,32.9h3.032l-0.438,2.41h1.569l-0.438,2.557h-1.57l-0.8,4.383a2.177,2.177,0,0,0-.036.435c0,0.544.329,0.776,1.058,0.776h0Zm7.489-5.195c-1.462,0-1.936,1.128-3.032,7.548H79.474l1.863-10.5h2.776L83.82,36.908C84.77,35.666,85.5,35.2,86.486,35.2a2.425,2.425,0,0,1,.329.026c0,0.006.109,0.026,0.256,0.062a2.045,2.045,0,0,1,.329.115L86.3,38.373,85.937,38.3a3.1,3.1,0,0,0-.365-0.026Zm6.576-3.255c-3.655,0-6.028,2.525-6.028,6.245,0,2.664,1.389,4.843,4.859,4.843,3.139,0,5.478-1.553,5.953-5.044a7.621,7.621,0,0,0,.073-1.3A4.489,4.489,0,0,0,92.15,35.012Zm1.5,5.955A3.044,3.044,0,0,1,91.31,43.54c-1.1.023-1.754-.936-1.754-2.363,0-1.687.95-3.6,2.52-3.6v0c1.242,0,1.68,1.039,1.68,2.137A6.748,6.748,0,0,1,93.646,40.968Zm-28.6.5a10.607,10.607,0,0,0,.367-2.6c0-2.327-1.607-3.813-4.127-3.813-3.068,0-5.332,2.653-5.332,6.255,0,3.093,1.79,4.709,5.224,4.709a11.479,11.479,0,0,0,3.106-.426l0.51-2.628a7.859,7.859,0,0,1-3.177.668h0c-1.754,0-2.667-.621-2.667-1.838a1.242,1.242,0,0,1,.036-0.331h6.062Zm-3.795-4.008a1.262,1.262,0,0,1,1.425,1.35v0.54l-3.4-.006A2.065,2.065,0,0,1,61.247,37.454Z"/>
</svg>
