<svg id="Mastercard.svg" xmlns="http://www.w3.org/2000/svg" width="128" height="80" viewBox="0 0 128 80">
  <defs>
    <style>
      .cls-1, .cls-4 {
        fill: #fff;
      }

      .cls-1 {
        stroke: #d9d9d9;
        stroke-linejoin: round;
        stroke-width: 1px;
      }

      .cls-2 {
        fill: #fcb835;
      }

      .cls-2, .cls-3, .cls-4 {
        fill-rule: evenodd;
      }

      .cls-3 {
        fill: #f03727;
      }
    </style>
  </defs>
  <rect id="Rounded_Rectangle_1_copy" data-name="Rounded Rectangle 1 copy" class="cls-1" width="128" height="80" rx="6" ry="6"/>
  <path id="Shape_3_copy" data-name="Shape 3 copy" class="cls-2" d="M104.013,40.014a24,24,0,1,1-24.006-24,24,24,0,0,1,24.006,24h0Z"/>
  <path class="cls-3" d="M71.013,40.014a24,24,0,1,1-24.005-24,24,24,0,0,1,24.005,24h0Z"/>
  <path class="cls-4" d="M52.907,36.421L52.53,38.036l-2.052-.041s-1.025.206-1.025,0.537,0.755,0.746,1.889,1.118a1.717,1.717,0,0,1,1.079,2.111c-0.107.7-.269,2.164-3.562,2.236a10.946,10.946,0,0,1-2.915-.248l0.432-1.655s2.429,0.5,2.969.206,1.187-.788.161-1.117-2.7-.872-2.7-2.2a2.4,2.4,0,0,1,1.782-2.443,10.68,10.68,0,0,1,4.318-.123h0ZM36.691,43.808H34.306l1.387-6.292-2.949,6.254H31.1l-0.4-6.5-1.442,6.543H27l2.127-9.6h2.737l0.958,5.529L36.007,34.2h2.811l-2.127,9.6h0Zm18.346,0.134a2.8,2.8,0,0,1-1.663-.386,1.443,1.443,0,0,1-.5-1.191,2.428,2.428,0,0,1,.038-0.385c0.019-.134.055-0.287,0.074-0.462l1.434-6.145h2.237l-0.325,1.2h2.09L58.07,38.091H55.981l-0.574,2.619c-0.037.171-.074,0.345-0.111,0.536a2.5,2.5,0,0,0-.055.463,0.587,0.587,0,0,0,.2.54,1.135,1.135,0,0,0,.647.154,2.308,2.308,0,0,0,.443-0.06A2.838,2.838,0,0,0,57,42.19h0.185l-0.351,1.54a4.978,4.978,0,0,1-.794.151,7.177,7.177,0,0,1-1,.06h0ZM71.09,38.6a1.4,1.4,0,0,0-1.8.362l-1.073,4.85H65.979l1.609-7.235h2.235l-0.046.584a2.848,2.848,0,0,1,2.1-.577A6.6,6.6,0,0,0,71.09,38.6h0ZM75.316,44a4.035,4.035,0,0,1-2.883-.963,3.562,3.562,0,0,1-1.019-2.751,7.074,7.074,0,0,1,.444-2.561,6.146,6.146,0,0,1,1.237-1.98A5.752,5.752,0,0,1,77.2,34.013a7.48,7.48,0,0,1,1.776.212c0.268,0.07.784,0.259,0.784,0.259l-0.519,2.281a3.589,3.589,0,0,0-.783-0.6,3.078,3.078,0,0,0-1.37-.309,2.75,2.75,0,0,0-2.274,1.155,4.6,4.6,0,0,0-.907,2.945,2.351,2.351,0,0,0,.5,1.673,1.98,1.98,0,0,0,1.444.5,3.823,3.823,0,0,0,1.609-.347c0.236-.12.467-0.245,0.695-0.389l-0.521,2.179s-0.269.1-.4,0.134c-0.312.1-.589,0.154-0.83,0.211A7.586,7.586,0,0,1,75.316,44h0ZM42.2,43.555a2.719,2.719,0,0,1-.259.137,6.544,6.544,0,0,1-.647.23,4.575,4.575,0,0,1-.851.078,2.006,2.006,0,0,1-1.4-.5,1.743,1.743,0,0,1-.556-1.327,2.431,2.431,0,0,1,1.554-2.406,5.99,5.99,0,0,1,1.7-.482l0.462-.058a15.641,15.641,0,0,1,1.7-.155,0.4,0.4,0,0,1,.018-0.134,0.6,0.6,0,0,0,.019-0.192,0.669,0.669,0,0,0-.407-0.654,3.362,3.362,0,0,0-1.22-.171H42.2a5,5,0,0,0-1.109.191c-0.444.135-.778,0.231-1,0.328h-0.2l0.333-1.712a9.161,9.161,0,0,1,1.2-.231,5.263,5.263,0,0,1,.776-0.1,6.205,6.205,0,0,1,.851-0.039,5.072,5.072,0,0,1,2.4.443,1.458,1.458,0,0,1,.759,1.386,2.324,2.324,0,0,1-.019.329c-0.019.134-.038,0.249-0.056,0.365l-1.089,4.925H42.825l0.168-.771c-0.13.1-.315,0.212-0.5,0.348-0.111.057-.2,0.115-0.3,0.171h0Zm0-3a3.514,3.514,0,0,0-.611.154,1.178,1.178,0,0,0-.572.4,1.021,1.021,0,0,0-.2.693,0.554,0.554,0,0,0,.258.519,1.655,1.655,0,0,0,.777.154,1.174,1.174,0,0,0,.352-0.058,2.8,2.8,0,0,0,.352-0.1,5.315,5.315,0,0,0,.7-0.4l0.333-1.54c-0.388.038-.777,0.078-1.108,0.137a1.253,1.253,0,0,0-.279.038h0Zm19.339-2.735a1.522,1.522,0,0,0-.794.346,2.478,2.478,0,0,0-.721,1.079h3.014c0-.077.019-0.135,0.019-0.212,0-.057.018-0.134,0.018-0.19a1.027,1.027,0,0,0-.315-0.793,1.294,1.294,0,0,0-.869-0.267,2.137,2.137,0,0,0-.352.037h0Zm0,4.542h0.334a3.735,3.735,0,0,0,1.387-.251,6.332,6.332,0,0,0,1.126-.576h0.259L64.217,43.4a6.193,6.193,0,0,1-1.367.444A7.054,7.054,0,0,1,61.536,44h-0.2a4.071,4.071,0,0,1-2.756-.828,2.768,2.768,0,0,1-.962-2.25,5.132,5.132,0,0,1,.316-1.81,4.385,4.385,0,0,1,.9-1.464,4.314,4.314,0,0,1,1.424-.96,5.774,5.774,0,0,1,1.276-.328c0.2-.017.407-0.017,0.61-0.017a3.6,3.6,0,0,1,2.349.652,2.362,2.362,0,0,1,.778,1.926,4.628,4.628,0,0,1-.074.866,7.267,7.267,0,0,1-.222.827H59.8v0.153a1.474,1.474,0,0,0,.518,1.173,2.1,2.1,0,0,0,1.22.425h0Zm20.955,1.191a1.65,1.65,0,0,1-.276.137,5.211,5.211,0,0,1-.645.23,4.548,4.548,0,0,1-.833.078,2.051,2.051,0,0,1-1.423-.5,1.729,1.729,0,0,1-.538-1.327,2.613,2.613,0,0,1,.391-1.462,2.689,2.689,0,0,1,1.147-.944,5.931,5.931,0,0,1,1.717-.482c0.149-.021.3-0.039,0.461-0.058a15.377,15.377,0,0,1,1.685-.155,1.156,1.156,0,0,0,.035-0.134c0-.056.02-0.116,0.02-0.192a0.691,0.691,0,0,0-.409-0.654A3.343,3.343,0,0,0,82.6,37.92H82.491a4.66,4.66,0,0,0-1.107.191c-0.445.135-.778,0.231-1,0.328h-0.2L80.5,36.727a8.877,8.877,0,0,1,1.219-.231,5.252,5.252,0,0,1,.774-0.1,6.093,6.093,0,0,1,.852-0.039,5.092,5.092,0,0,1,2.406.443,1.492,1.492,0,0,1,.757,1.386,2.523,2.523,0,0,1-.017.329c-0.02.134-.038,0.249-0.059,0.365L85.34,43.808H83.119l0.171-.771c-0.151.1-.315,0.212-0.518,0.348l-0.281.171h0Zm0-3a4.3,4.3,0,0,0-.626.154,1.264,1.264,0,0,0-.572.4,1.109,1.109,0,0,0-.207.693,0.533,0.533,0,0,0,.279.519,1.565,1.565,0,0,0,.758.154,1.265,1.265,0,0,0,.367-0.058,1.847,1.847,0,0,0,.333-0.1,4.457,4.457,0,0,0,.7-0.4l0.35-1.54c-0.406.038-.777,0.078-1.128,0.137a0.994,0.994,0,0,0-.259.038h0ZM91.929,38.6a1.4,1.4,0,0,0-1.8.362l-1.072,4.85H86.818l1.609-7.235h2.235l-0.046.584a2.846,2.846,0,0,1,2.1-.577,6.492,6.492,0,0,0-.786,2.015h0Zm4.394-.484a1.68,1.68,0,0,0-.314.154,2.188,2.188,0,0,0-.739.656,3.044,3.044,0,0,0-.406.981,4.057,4.057,0,0,0-.168,1.136,1.328,1.328,0,0,0,.294.942,1.183,1.183,0,0,0,.89.309,1.23,1.23,0,0,0,.444-0.078,0.9,0.9,0,0,0,.2-0.076,4.31,4.31,0,0,0,.628-0.328l0.794-3.56a1.957,1.957,0,0,0-.479-0.155,1.73,1.73,0,0,0-.5-0.075,2.221,2.221,0,0,0-.645.1h0Zm0,5.312a3.87,3.87,0,0,1-.556.326,3.6,3.6,0,0,1-.534.192,3.2,3.2,0,0,1-.648.058,2.105,2.105,0,0,1-1.629-.674,2.95,2.95,0,0,1-.592-1.944,5.494,5.494,0,0,1,.315-1.943,5.216,5.216,0,0,1,.87-1.6,4.132,4.132,0,0,1,1.292-1.079,3.433,3.433,0,0,1,1.481-.4H96.4a3.821,3.821,0,0,1,1,.115,3.731,3.731,0,0,1,.868.386l0.5-2.523H101l-2.05,9.469H96.712l0.165-.75c-0.2.131-.389,0.249-0.554,0.365h0Z"/>
</svg>
