<svg id="Unionpay.svg" xmlns="http://www.w3.org/2000/svg" width="128" height="80" viewBox="0 0 128 80">
  <defs>
    <style>
      .cls-1, .cls-5 {
        fill: #fff;
      }

      .cls-1 {
        stroke: #d9d9d9;
        stroke-linejoin: round;
        stroke-width: 1px;
      }

      .cls-2 {
        fill: #ed171f;
      }

      .cls-2, .cls-3, .cls-4, .cls-5 {
        fill-rule: evenodd;
      }

      .cls-3 {
        fill: #082f67;
      }

      .cls-4 {
        fill: #006a65;
      }
    </style>
  </defs>
  <rect id="Rounded_Rectangle_1_copy_7" data-name="Rounded Rectangle 1 copy 7" class="cls-1" width="128" height="80" rx="6" ry="6"/>
  <path id="Rounded_Rectangle_1_copy_2" data-name="Rounded Rectangle 1 copy 2" class="cls-2" d="M39.9,14H59.992a3.91,3.91,0,0,1,3.927,5.068L54.433,59.932A6.8,6.8,0,0,1,48.153,65H28.06a3.91,3.91,0,0,1-3.927-5.068l9.486-40.863A6.8,6.8,0,0,1,39.9,14Z"/>
  <path id="Rounded_Rectangle_1_copy" data-name="Rounded Rectangle 1 copy" class="cls-3" d="M57.973,14H78.067a3.91,3.91,0,0,1,3.927,5.068L72.508,59.932A6.8,6.8,0,0,1,66.228,65H46.135a3.91,3.91,0,0,1-3.927-5.068l9.486-40.863A6.8,6.8,0,0,1,57.973,14Z"/>
  <path id="Rounded_Rectangle_1" data-name="Rounded Rectangle 1" class="cls-4" d="M79.854,14H99.947a3.91,3.91,0,0,1,3.927,5.068L94.388,59.932A6.8,6.8,0,0,1,88.109,65H68.015a3.91,3.91,0,0,1-3.927-5.068l9.486-40.863A6.8,6.8,0,0,1,79.854,14Z"/>
  <path class="cls-5" d="M82.36,28.431c-0.715-1-2.135-1.021-3.773-1.029l-0.808.007c-2.1.025-2.939,0.018-3.285-.025-0.03.154-.085,0.427-0.085,0.427s-0.752,3.5-.752,3.508l0,0s-1.8,7.447-1.882,7.8c1.833-.023,2.584-0.023,2.9.012,0.071-.351.5-2.431,0.5-2.431s0.362-1.527.385-1.582a0.872,0.872,0,0,1,.227-0.222h0.168c1.581,0,3.364,0,4.763-1.036a5.1,5.1,0,0,0,1.893-3.029,4.582,4.582,0,0,0,.13-1.055A2.218,2.218,0,0,0,82.36,28.431Zm-2.724,2.616a2.553,2.553,0,0,1-1.318,1.747,4.169,4.169,0,0,1-1.852.289H76.032l0.034-.176s0.8-3.494.8-3.481l0.026-.179L76.9,29.11l0.319,0.034L78.9,29.289A1.385,1.385,0,0,1,79.636,31.047ZM88.781,32.3c-1.21.225-1.535,0.273-2.7,0.44l-0.088.073c-0.012.094-.025,0.184-0.035,0.275a1.676,1.676,0,0,0-.849-0.7l0,0a3.23,3.23,0,0,0-2.78,1.014,4.776,4.776,0,0,0-1.288,2.518c-0.212.9-.453,2.559,1.051,3.148a2.91,2.91,0,0,0,1.348.245,2.212,2.212,0,0,0,1.284-.592c-0.037.138-.072,0.275-0.108,0.413l0.069,0.089c1.083-.046,1.418-0.046,2.592-0.037l0.106-.081c0.171-1.011.333-1.993,0.778-3.93,0.217-.926.434-1.844,0.656-2.768Zm-3.315,3.467c-0.076.332-.16,0.66-0.242,0.99a2.44,2.44,0,0,1-.286.578,1.33,1.33,0,0,1-.942.458,0.584,0.584,0,0,1-.57-0.706,4.881,4.881,0,0,1,.159-1.11c0.259-1.115.556-2.059,1.328-2.059,0.487,0,.745.454,0.692,1.225C85.565,35.335,85.519,35.539,85.466,35.768Zm-21.131.9a34.754,34.754,0,0,0,.73-4.038l0.087-.062c1.122-.16,1.4-0.191,2.613-0.44l0.094,0.115-0.175.679c0.2-.124.4-0.246,0.609-0.355a3.8,3.8,0,0,1,1.56-.367,1.335,1.335,0,0,1,1.364.768c0.226,0.552.072,1.231-.233,2.568l-0.152.683C70.512,37.7,70.466,37.977,70.295,39l-0.118.089c-0.974-.016-1.305-0.016-2.443.044l-0.042-.087c0.1-.436.208-0.862,0.309-1.3l0.132-.594a22.685,22.685,0,0,0,.438-2.323A0.5,0.5,0,0,0,68.1,34.14a1.838,1.838,0,0,0-.734.23c-0.132.491-.413,1.871-0.55,2.5C66.548,38.194,66.526,38.346,66.4,39l-0.087.089c-1-.016-1.343-0.016-2.495.044l-0.051-.1c0.191-.786.383-1.58,0.566-2.367Zm0.972,6.225-0.459,1.543H61.4l-0.374.325a1.277,1.277,0,0,1-.427.206,2.5,2.5,0,0,1-1.134.294h-1.1L58.8,43.777h0.333a1.229,1.229,0,0,0,.57-0.087,1.349,1.349,0,0,0,.369-0.482l0.637-1.158h2.507l-0.441.842H65.3ZM43.746,34.815a5.212,5.212,0,0,1-2.237,3.511,6.91,6.91,0,0,1-3.5.819c-1.055,0-2.92-.172-3.574-1.321a2.61,2.61,0,0,1-.307-1.316l0.238-1.77,0.123-.541,1.436-6.379s0.069-.351.087-0.412a20.444,20.444,0,0,0,3.255.044,0.686,0.686,0,0,1-.019.085c-0.252.748-1.657,6.409-1.657,6.409s-0.268,1.692-.268,1.692l0.016,0.286a1.32,1.32,0,0,0,1.48,1.273,2.154,2.154,0,0,0,1.424-.5,4.551,4.551,0,0,0,1.21-2.729c0-.005,1.342-6.216,1.415-6.56a20.461,20.461,0,0,0,2.757.044,0.3,0.3,0,0,0-.026.085c-0.245.764-1.694,6.643-1.694,6.643Zm7.942,0.716-0.155.683C51.222,37.7,51.171,37.976,51,39l-0.115.089c-0.968-.016-1.314-0.016-2.447.044l-0.042-.087c0.1-.436.2-0.862,0.3-1.3l0.139-.594c0.21-.922.413-2,0.438-2.323a0.5,0.5,0,0,0-.471-0.686,1.884,1.884,0,0,0-.732.23c-0.136.491-.411,1.871-0.543,2.5-0.281,1.325-.3,1.477-0.425,2.132l-0.081.089c-1-.016-1.35-0.016-2.5.044l-0.051-.1c0.191-.786.381-1.58,0.566-2.366a33.623,33.623,0,0,0,.73-4.038l0.093-.062c1.124-.16,1.4-0.192,2.609-0.44l0.1,0.115-0.187.679c0.208-.124.4-0.247,0.612-0.355a3.81,3.81,0,0,1,1.56-.367,1.32,1.32,0,0,1,1.36.768c0.229,0.552.076,1.231-.228,2.568v0ZM55.76,35.1c-0.108.472-.221,0.931-0.323,1.392-0.217.983-.305,1.35-0.356,1.617-0.051.247-.065,0.383-0.148,0.892l-0.055.046-0.051.043c-0.586,0-.965-0.016-1.33,0s-0.721.023-1.267,0.048l-0.03-.048-0.035-.051a8.2,8.2,0,0,1,.3-0.961,7.054,7.054,0,0,0,.275-0.974c0.171-.748.275-1.27,0.344-1.727s0.123-.819.183-1.256l0.042-.034,0.046-.043c0.582-.082.953-0.137,1.33-0.2s0.766-.128,1.369-0.245l0.021,0.051L56.095,33.7c-0.111.461-.227,0.924-0.337,1.392Zm0.129-2a2.2,2.2,0,0,1-2.145.23c-0.545-.328-0.473-0.954.173-1.392a2.2,2.2,0,0,1,2.156-.227C56.612,32.029,56.532,32.648,55.889,33.1Zm6.134,20.517H59.188a2.726,2.726,0,0,1-.646-0.089,0.668,0.668,0,0,1-.45-0.33,0.646,0.646,0,0,1-.154-0.661l0.815-2.708h-1.4l0.466-1.548h1.4L59.6,47.018H58.2l0.446-1.474H64.8l-0.455,1.474H61.885L61.5,48.278h2.517L63.557,49.8H61.042L60.43,51.846c-0.074.225,0.6,0.255,0.842,0.255l1.258-.174-0.5,1.687h0Zm10.44-4.192a1.285,1.285,0,0,1-.383.713,1.538,1.538,0,0,1-1.155.412l-1.194.05-0.009,1.076c-0.012.3,0.069,0.273,0.117,0.321a0.414,0.414,0,0,0,.157.1l0.379-.021,1.14-.062-0.473,1.571H69.732a4.171,4.171,0,0,1-1.815-.2,0.6,0.6,0,0,1-.245-0.619l0.085-4.2h2.089l-0.03.858h0.5a0.7,0.7,0,0,0,.36-0.062,0.374,0.374,0,0,0,.139-0.218l0.21-.672h1.641l-0.2.954h0Zm17.4-2.772H87.419l-0.383,1.227h2.456l-0.407,1.341H86.433l-0.473.566h1.076l0.263,1.69a0.914,0.914,0,0,0,.085.351,1.373,1.373,0,0,0,.566.09h0.326l-0.5,1.644H86.95c-0.127,0-.317-0.009-0.582-0.02a1.548,1.548,0,0,1-.589-0.254,0.8,0.8,0,0,1-.434-0.573l-0.259-1.687-1.207,1.662a2.047,2.047,0,0,1-1.777.928H80.416l0.443-1.468H81.5a1.056,1.056,0,0,0,.473-0.136,0.726,0.726,0,0,0,.356-0.3l1.761-2.492H81.769l0.4-1.341h2.657L85.2,46.651H82.58l0.446-1.513h7.3l-0.455,1.513Zm1.542-4.664-0.1.115h0.014l-0.942,1.624a1.844,1.844,0,0,1-1.731.974l-1.5-.027,0.438-1.461h0.295a0.792,0.792,0,0,0,.347-0.05,0.4,0.4,0,0,0,.192-0.176l0.531-.844-0.005-.011c0.753-1.14.939-1.632,1.722-2.93-0.139-1.454-.2-1.922-0.318-2.877-0.069-.569-0.159-1.149-0.226-1.726a15.944,15.944,0,0,0-.256-1.754l-0.007-.016a0.894,0.894,0,0,1,.019-0.128l0.09-.082c1.159-.149,1.189-0.188,2.443-0.433l0.1,0.106,0.168,3.244c0,0.073,0,.115.007,0.183,0.667-1.5.642-1.087,1.462-2.986l0,0.018c0.005-.018.009-0.039,0.012-0.051l0.081-.082c1.1-.149,1.318-0.188,2.516-0.433l0.094,0.108s-4.823,8.318-5.457,9.69v0ZM79.772,53.6h0v0Zm6.857-10.392c-0.284,0-.416-0.073-0.4-0.227L86.2,42.069h-2.44v0a33.9,33.9,0,0,0-3.622.2,4.251,4.251,0,0,0-1.186.589l0.24-.807H76.914l-0.476,1.6-2.385,7.947H73.59l-0.453,1.5h4.546l-0.152.5h2.24l0.149-.495h0.628l0.492-1.617H80.4l2.353-7.828h0.781l0.247-.807,0.025,0.9c-0.03.555,0.4,1.046,1.544,0.965h1.318l0.453-1.508h-0.5Zm-8.434,8.3H76.376L76.9,49.748h1.814Zm1.016-3.4s-0.57.071-.944,0.156a9.4,9.4,0,0,0-1.062.468l0.624-2.082h1.822Zm0.9-2.99a5.918,5.918,0,0,0-.935.133,9.946,9.946,0,0,0-1.046.41l0.605-2H80.55Zm5.112-8.36a9.152,9.152,0,0,0,.293-1.009,3.949,3.949,0,0,0,.088-0.6c-0.041.192-.087,0.4-0.139,0.624C85.389,36.1,85.306,36.427,85.225,36.757ZM63.287,33.1a2.85,2.85,0,0,0-2.325-.858,4.247,4.247,0,0,0-2.92,1.016,4.832,4.832,0,0,0-1.295,2.534v0c-0.21.919-.45,2.572,1.062,3.187a4.4,4.4,0,0,0,1.574.257,4.1,4.1,0,0,0,3.1-1.217,5.532,5.532,0,0,0,1.064-2.291C63.885,34.225,63.621,33.524,63.287,33.1ZM61,35.617a5.092,5.092,0,0,1-.566,1.594,0.935,0.935,0,0,1-.727.475l0,0a0.584,0.584,0,0,1-.57-0.718,4.815,4.815,0,0,1,.155-1.11c0.256-1.135.556-2.089,1.327-2.089C61.227,33.767,61.271,34.476,61,35.617Zm9.923,6.461a11.029,11.029,0,0,0-1.544.335,6.333,6.333,0,0,0-1.155.743l0.314-1.089h-2.15L63.381,52.1a6.238,6.238,0,0,0-.194.842,0.879,0.879,0,0,0,.381.5,1.356,1.356,0,0,0,.7.137c0.268,0.021.651,0.034,1.178,0.034H67.1v0l0.508-1.722-1.48.14a0.386,0.386,0,0,1-.319-0.156,0.8,0.8,0,0,1,.074-0.546l0.942-3.137H70.18c0.489-.009.841-0.014,1.071-0.03a2.19,2.19,0,0,0,.806-0.273,1.494,1.494,0,0,0,.586-0.543,4.72,4.72,0,0,0,.579-1.32l1.186-3.971Zm-0.194,4.7a2.426,2.426,0,0,0-.466.007h-3.05l0.217-.713h3.523Zm0.7-2.222h0s-1.674-.016-1.942.034a3.964,3.964,0,0,0-1.868.839l0.515-1.722h3.553Z"/>
</svg>
