<svg id="Visa.svg" xmlns="http://www.w3.org/2000/svg" width="128" height="80" viewBox="0 0 128 80">
  <defs>
    <style>
      .cls-1 {
        fill: #fff;
        stroke: #d9d9d9;
        stroke-linejoin: round;
        stroke-width: 1px;
      }

      .cls-2 {
        fill: #1a1f71;
      }

      .cls-2, .cls-3 {
        fill-rule: evenodd;
      }

      .cls-3 {
        fill: #f2ae14;
      }
    </style>
  </defs>
  <rect id="Rounded_Rectangle_1_copy_8" data-name="Rounded Rectangle 1 copy 8" class="cls-1" width="128" height="80" rx="6" ry="6"/>
  <path class="cls-2" d="M45.435,25.536L38.619,44.662l-0.732-3.886a22.15,22.15,0,0,0-9.643-11.713l6.232,24.495,7.37,0L52.81,25.536H45.435Zm5.84,28.032L55.63,25.513H62.6L58.24,53.568H51.274ZM83.5,26.2a16.591,16.591,0,0,0-6.241-1.182c-6.891,0-11.733,3.807-11.775,9.253-0.044,4.044,3.463,6.288,6.1,7.635,2.714,1.375,3.624,2.255,3.613,3.483-0.024,1.873-2.173,2.727-4.174,2.727a13.376,13.376,0,0,1-6.544-1.471l-0.905-.438L62.6,52.482a20.249,20.249,0,0,0,7.761,1.5c7.313,0,12.067-3.768,12.124-9.59,0.03-3.2-1.831-5.623-5.855-7.626-2.426-1.3-3.933-2.159-3.909-3.477,0-1.166,1.261-2.409,4-2.409a11.591,11.591,0,0,1,5.211,1.078l0.62,0.324L83.5,26.2h0Zm17.854-.665H95.979a3.45,3.45,0,0,0-3.655,2.329l-10.339,25.7h7.32s1.2-3.454,1.463-4.215c0.8,0,7.9.014,8.914,0.014,0.216,0.984.851,4.2,0.851,4.2H107l-5.643-28.033v0Zm-8.586,18.08c0.583-1.608,2.778-7.84,2.778-7.84-0.044.075,0.566-1.627,0.927-2.678l0.465,2.425s1.338,6.693,1.613,8.092H92.771Z"/>
  <path id="Shape_12_copy" data-name="Shape 12 copy" class="cls-3" d="M32.3,25.057H21.064L21,25.539c8.731,2.318,14.491,8.033,16.886,14.773L35.45,27.425C35.032,25.641,33.808,25.122,32.3,25.057Z"/>
</svg>
