<?xml version="1.0" encoding="utf-8"?>
<!-- Generated by IcoMoon.io -->
<!DOCTYPE svg PUBLIC "-//W3C//DTD SVG 1.1//EN" "http://www.w3.org/Graphics/SVG/1.1/DTD/svg11.dtd">
<svg version="1.1" xmlns="http://www.w3.org/2000/svg" xmlns:xlink="http://www.w3.org/1999/xlink" width="20" height="32" viewBox="0 0 20 32">
<g>
</g>
	<path d="M17 24.5c0 0.8-0.7 1.5-1.5 1.5s-1.5-0.7-1.5-1.5c0-0.4 0-2.5 0-2.5h3c0 0 0 1.7 0 2.5z" fill="#73b355"></path>
	<path d="M8 24.5c0 0.8-0.7 1.5-1.5 1.5s-1.5-0.7-1.5-1.5c0-0.9 0-2.5 0-2.5h3c0 0 0 1.7 0 2.5z" fill="#73b355"></path>
	<path d="M16.1 20c0.7 0 1.4-0.5 1.6-1.3l1.5-5.7c0.1-0.6-0.3-2-1.2-2h-1c-0.3-2-2-4-4.5-5-0.8-0.3-1.4-1.2-1.9-2-0.3 1.2-0.1 1.8-1.9 2.6-1.7 0.8-2.9 2.4-3.2 4.4h-1.4c-0.1 0-0.1-0.1-0.2-0.1l-0.9-0.9c0 0 0-0.3 0-0.5 0-0.8-0.7-1.5-1.5-1.5s-1.5 0.7-1.5 1.5c0 0.8 0.7 1.5 1.5 1.5h0.5l1.1 1v0.1l1.9 6.7c0.1 0.3 0.2 0.5 0.5 0.7l-3.5 2.5 1 1h16.2l-1-2h-13.1l2-1h9zM16 13h1v1h-1v-1zM16 15h1v1h-1v-1zM6 17h1v1h-1v-1zM14 13h1v1h-1v-1zM14 15h1v1h-1v-1zM14 17h1v1h-1v-1zM12 13h1v1h-1v-1zM12 15h1v1h-1v-1zM12 17h1v1h-1v-1zM10 13h1v1h-1v-1zM10 15h1v1h-1v-1zM10 17h1v1h-1v-1zM8 13h1v1h-1v-1zM8 15h1v1h-1v-1zM8 17h1v1h-1v-1zM7 16h-1v-1h1v1zM7 14h-1v-1h1v1z" fill="#73b355"></path>
</svg>
